# xmcd CD database file
#
# Track frame offsets:
#	150
#	18962
#	39690
#	59762
#	79870
#	104860
#	124455
#	156587
#	172852
#	197920
#	227162
#	243767
#
# Disc length: 3523 seconds
#
# Revision: 0
# Processed by: cddbd v1.5.2PL0 Copyright (c) Steve Scherf et al.
# Submitted via: CDex 1.51
#
DISCID=aa0dc10c
DTITLE=Greentown Jazz Band - On the road
DYEAR=1991
DGENRE=Jazz
TTITLE0=Carry me back to old Virginy
TTITLE1=Nuages
TTITLE2=Margie
TTITLE3=South Rampart Street Parade
TTITLE4=If I had you
TTITLE5=Indiana
TTITLE6=Don't get around much anymore
TTITLE7=I'm gonna sit down and write myself a letter
TTITLE8=Tin roof blues
TTITLE9=New story
TTITLE10=Stranger on the shore
TTITLE11=Caravan
EXTD=YEAR: 1991
EXTT0=
EXTT1=
EXTT2=
EXTT3=
EXTT4=
EXTT5=
EXTT6=
EXTT7=
EXTT8=
EXTT9=
EXTT10=
EXTT11=
PLAYORDER=
